<?xml version="1.0" standalone="no"?>
<!DOCTYPE svg PUBLIC "-//W3C//DTD SVG 20010904//EN"
 "http://www.w3.org/TR/2001/REC-SVG-20010904/DTD/svg10.dtd">
<svg version="1.0" xmlns="http://www.w3.org/2000/svg"
 width="146.000000pt" height="188.000000pt" viewBox="0 0 146.000000 188.000000"
 preserveAspectRatio="xMidYMid meet">

<g transform="translate(0.000000,188.000000) scale(0.100000,-0.100000)"
fill="#024dbe" stroke="none">
<path d="M220 961 l0 -571 241 0 c158 0 255 4 281 12 91 27 185 167 195 291
l5 62 -26 -37 c-32 -45 -98 -92 -151 -107 -22 -6 -97 -11 -167 -11 l-128 0 0
356 0 356 153 -3 153 -4 76 -38 c163 -80 248 -236 248 -452 0 -104 -24 -209
-63 -279 l-26 -47 29 21 c77 55 151 168 186 286 23 76 23 235 1 321 -49 187
-174 321 -355 381 -74 24 -89 25 -364 30 l-288 4 0 -571z"/>
</g>
</svg>
